<?xml version="1.0" encoding="UTF-8" standalone="no"?>
<!-- Created with Inkscape (http://www.inkscape.org/) -->

<svg
   width="1920"
   height="1080"
   viewBox="0 0 1920 1080"
   version="1.1"
   id="svg1"
   inkscape:version="1.3.2 (091e20ef0f, 2023-11-25)"
   sodipodi:docname="gameboard.svg"
   xmlns:inkscape="http://www.inkscape.org/namespaces/inkscape"
   xmlns:sodipodi="http://sodipodi.sourceforge.net/DTD/sodipodi-0.dtd"
   xmlns:xlink="http://www.w3.org/1999/xlink"
   xmlns="http://www.w3.org/2000/svg"
   xmlns:svg="http://www.w3.org/2000/svg">
  <sodipodi:namedview
     id="namedview1"
     pagecolor="#ffffff"
     bordercolor="#000000"
     borderopacity="0.25"
     inkscape:showpageshadow="2"
     inkscape:pageopacity="0.0"
     inkscape:pagecheckerboard="0"
     inkscape:deskcolor="#d1d1d1"
     inkscape:document-units="px"
     showguides="true"
     inkscape:zoom="1"
     inkscape:cx="889.5"
     inkscape:cy="591"
     inkscape:window-width="3734"
     inkscape:window-height="1539"
     inkscape:window-x="5"
     inkscape:window-y="284"
     inkscape:window-maximized="0"
     inkscape:current-layer="svg1" />
  <defs
     id="defs1">
    <linearGradient
       id="linearGradient19"
       inkscape:collect="always">
      <stop
         style="stop-color:#0018b6;stop-opacity:0.96824992;"
         offset="0"
         id="stop21" />
      <stop
         style="stop-color:#00107b;stop-opacity:0.93175364;"
         offset="1"
         id="stop22" />
    </linearGradient>
    <linearGradient
       id="linearGradient104"
       inkscape:collect="always">
      <stop
         style="stop-color:#090087;stop-opacity:1;"
         offset="0"
         id="stop104" />
      <stop
         style="stop-color:#0140c6;stop-opacity:0.80308932;"
         offset="1"
         id="stop105" />
    </linearGradient>
    <pattern
       inkscape:collect="always"
       xlink:href="#pattern91"
       preserveAspectRatio="xMidYMid"
       id="pattern98"
       patternTransform="matrix(0.022,0,0,0.022,-506.4837,-1209.1252)"
       x="400"
       y="1100"
       height="2160.00024414" />
    <linearGradient
       id="linearGradient91"
       inkscape:collect="always">
      <stop
         style="stop-color:#6d76ff;stop-opacity:1;"
         offset="0.16016607"
         id="stop88" />
      <stop
         style="stop-color:#b1b6ff;stop-opacity:1;"
         offset="0.38842586"
         id="stop89" />
      <stop
         style="stop-color:#afb4ff;stop-opacity:1;"
         offset="0.69546497"
         id="stop90" />
      <stop
         style="stop-color:#0011ff;stop-opacity:1;"
         offset="1"
         id="stop91" />
    </linearGradient>
    <linearGradient
       id="linearGradient79"
       inkscape:collect="always">
      <stop
         style="stop-color:#13136d;stop-opacity:1;"
         offset="0"
         id="stop79" />
      <stop
         style="stop-color:#0d37ff;stop-opacity:1;"
         offset="1"
         id="stop80" />
    </linearGradient>
    <inkscape:path-effect
       effect="fillet_chamfer"
       id="path-effect75"
       is_visible="true"
       lpeversion="1"
       nodesatellites_param="F,0,0,1,0,0,0,1 @ F,0,0,1,0,0,0,1 @ F,0,0,1,0,0,0,1 @ F,0,0,1,0,0,0,1 @ F,0,0,1,0,0,0,1 @ F,0,0,1,0,0,0,1 @ F,0,0,1,0,0,0,1 @ F,0,0,1,0,0,0,1"
       radius="0"
       unit="px"
       method="auto"
       mode="F"
       chamfer_steps="1"
       flexible="false"
       use_knot_distance="true"
       apply_no_radius="true"
       apply_with_radius="true"
       only_selected="false"
       hide_knots="false" />
    <linearGradient
       id="linearGradient72"
       inkscape:collect="always">
      <stop
         style="stop-color:#fcd836;stop-opacity:1;"
         offset="0.70773464"
         id="stop73" />
      <stop
         style="stop-color:#ffb616;stop-opacity:1;"
         offset="1"
         id="stop74" />
    </linearGradient>
    <inkscape:path-effect
       effect="fillet_chamfer"
       id="path-effect42"
       is_visible="true"
       lpeversion="1"
       nodesatellites_param="F,0,0,1,0,0,0,1 @ F,0,0,1,0,0,0,1 @ F,0,0,1,0,0,0,1 @ F,0,0,1,0,0,0,1 @ F,0,0,1,0,0,0,1 @ F,0,0,1,0,0,0,1 @ F,0,0,1,0,0,0,1 @ F,0,0,1,0,0,0,1"
       radius="0"
       unit="px"
       method="auto"
       mode="F"
       chamfer_steps="1"
       flexible="false"
       use_knot_distance="true"
       apply_no_radius="true"
       apply_with_radius="true"
       only_selected="false"
       hide_knots="false" />
    <inkscape:path-effect
       effect="fillet_chamfer"
       id="path-effect40"
       is_visible="true"
       lpeversion="1"
       nodesatellites_param="F,0,0,1,0,0,0,1 @ F,0,0,1,0,0,0,1 @ F,0,0,1,0,0,0,1 @ F,0,0,1,0,0,0,1 @ F,0,0,1,0,0,0,1 @ F,0,0,1,0,0,0,1 @ F,0,0,1,0,0,0,1 @ F,0,0,1,0,0,0,1"
       radius="0"
       unit="px"
       method="auto"
       mode="F"
       chamfer_steps="1"
       flexible="false"
       use_knot_distance="true"
       apply_no_radius="true"
       apply_with_radius="true"
       only_selected="false"
       hide_knots="false" />
    <inkscape:path-effect
       effect="fillet_chamfer"
       id="path-effect38"
       is_visible="true"
       lpeversion="1"
       nodesatellites_param="F,0,0,1,0,0,0,1 @ F,0,0,1,0,0,0,1 @ F,0,0,1,0,0,0,1 @ F,0,0,1,0,0,0,1"
       radius="0"
       unit="px"
       method="auto"
       mode="F"
       chamfer_steps="1"
       flexible="false"
       use_knot_distance="true"
       apply_no_radius="true"
       apply_with_radius="true"
       only_selected="false"
       hide_knots="false" />
    <inkscape:path-effect
       effect="fillet_chamfer"
       id="path-effect37"
       is_visible="true"
       lpeversion="1"
       nodesatellites_param="F,0,0,1,0,0,0,1 @ F,0,0,1,0,0,0,1 @ F,0,0,1,0,0,0,1 @ F,0,0,1,0,0,0,1"
       radius="0"
       unit="px"
       method="auto"
       mode="F"
       chamfer_steps="1"
       flexible="false"
       use_knot_distance="true"
       apply_no_radius="true"
       apply_with_radius="true"
       only_selected="false"
       hide_knots="false" />
    <inkscape:path-effect
       effect="fillet_chamfer"
       id="path-effect36"
       is_visible="true"
       lpeversion="1"
       nodesatellites_param="F,0,0,1,0,0,0,1 @ F,0,0,1,0,0,0,1 @ F,0,0,1,0,0,0,1 @ F,0,0,1,0,0,0,1"
       radius="0"
       unit="px"
       method="auto"
       mode="F"
       chamfer_steps="1"
       flexible="false"
       use_knot_distance="true"
       apply_no_radius="true"
       apply_with_radius="true"
       only_selected="false"
       hide_knots="false" />
    <inkscape:path-effect
       effect="fillet_chamfer"
       id="path-effect32"
       is_visible="true"
       lpeversion="1"
       nodesatellites_param="F,0,0,1,0,0,0,1 @ F,0,0,1,0,0,0,1 @ F,0,0,1,0,0,0,1 @ F,0,0,1,0,0,0,1 @ F,0,0,1,0,0,0,1 @ F,0,0,1,0,0,0,1 @ F,0,0,1,0,0,0,1 @ F,0,0,1,0,0,0,1 @ F,0,0,1,0,0,0,1 @ F,0,0,1,0,0,0,1 @ F,0,0,1,0,0,0,1 @ F,0,0,1,0,0,0,1 @ F,0,0,1,0,0,0,1 @ F,0,0,1,0,0,0,1 @ F,0,0,1,0,0,0,1 @ F,0,0,1,0,0,0,1 @ F,0,0,1,0,0,0,1 @ F,0,0,1,0,0,0,1 @ F,0,0,1,0,0,0,1 @ F,0,0,1,0,0,0,1 @ F,0,0,1,0,0,0,1 @ F,0,0,1,0,0,0,1 @ F,0,0,1,0,0,0,1 @ F,0,0,1,0,0,0,1 @ F,0,0,1,0,0,0,1 @ F,0,0,1,0,32.068171,0,1 @ F,0,0,1,0,0,0,1 @ F,0,0,1,0,0,0,1 @ F,0,0,1,0,0,0,1 @ F,0,0,1,0,0,0,1 @ F,0,0,1,0,0,0,1 @ F,0,0,1,0,0,0,1 @ F,0,0,1,0,0,0,1 @ F,0,0,1,0,0,0,1 @ F,0,0,1,0,0,0,1 @ F,0,0,1,0,0,0,1 @ F,0,0,1,0,0,0,1 @ F,0,0,1,0,0,0,1 @ F,0,0,1,0,0,0,1 @ F,0,0,1,0,0,0,1 @ F,0,0,1,0,0,0,1 @ F,0,0,1,0,0,0,1 @ F,0,0,1,0,0,0,1 @ F,0,0,1,0,0,0,1 @ F,0,0,1,0,0,0,1 @ F,0,0,1,0,0,0,1 @ F,0,0,1,0,0,0,1 @ F,0,0,1,0,0,0,1 @ F,0,0,1,0,0,0,1 @ F,0,0,1,0,0,0,1 @ F,0,0,1,0,0,0,1 @ F,0,0,1,0,0,0,1 @ F,0,0,1,0,0,0,1 @ F,0,0,1,0,0,0,1 @ F,0,0,1,0,0,0,1 @ F,0,0,1,0,0,0,1 @ F,0,0,1,0,0,0,1 @ F,0,0,1,0,0,0,1 @ F,0,0,1,0,0,0,1 @ F,0,0,1,0,0,0,1 @ F,0,0,1,0,0,0,1 @ F,0,0,1,0,0,0,1 @ F,0,0,1,0,0,0,1 @ F,0,0,1,0,0,0,1 @ F,0,0,1,0,33.4085,0,1 @ F,0,0,1,0,0,0,1 @ F,0,0,1,0,0,0,1 @ F,0,0,1,0,0,0,1 @ F,0,0,1,0,0,0,1 @ F,0,0,1,0,0,0,1 @ F,0,0,1,0,0,0,1 @ F,0,0,1,0,0,0,1 @ F,0,0,1,0,0,0,1 @ F,0,0,1,0,0,0,1 @ F,0,0,1,0,0,0,1 @ F,0,0,1,0,0,0,1 @ F,0,0,1,0,0,0,1 @ F,0,0,1,0,0,0,1"
       radius="0"
       unit="px"
       method="auto"
       mode="F"
       chamfer_steps="1"
       flexible="false"
       use_knot_distance="true"
       apply_no_radius="true"
       apply_with_radius="true"
       only_selected="false"
       hide_knots="false" />
    <inkscape:path-effect
       effect="fillet_chamfer"
       id="path-effect31"
       is_visible="true"
       lpeversion="1"
       nodesatellites_param="F,0,0,1,0,0,0,1 @ F,0,0,1,0,0,0,1 @ F,0,0,1,0,0,0,1 @ F,0,0,1,0,0,0,1 @ F,0,0,1,0,0,0,1 @ F,0,0,1,0,0,0,1 @ F,0,0,1,0,0,0,1 @ F,0,0,1,0,0,0,1 @ F,0,0,1,0,0,0,1 @ F,0,0,1,0,0,0,1 @ F,0,0,1,0,0,0,1 @ F,0,0,1,0,0,0,1 @ F,0,0,1,0,0,0,1 @ F,0,0,1,0,0,0,1 @ F,0,0,1,0,0,0,1 @ F,0,0,1,0,0,0,1 @ F,0,0,1,0,0,0,1 @ F,0,0,1,0,0,0,1 @ F,0,0,1,0,0,0,1 @ F,0,0,1,0,0,0,1 @ F,0,0,1,0,0,0,1 @ F,0,0,1,0,0,0,1 @ F,0,0,1,0,0,0,1 @ F,0,0,1,0,0,0,1 @ F,0,0,1,0,0,0,1 @ F,0,0,1,0,0,0,1 @ F,0,0,1,0,0,0,1 @ F,0,0,1,0,0,0,1 @ F,0,0,1,0,0,0,1 @ F,0,0,1,0,0,0,1 @ F,0,0,1,0,0,0,1 @ F,0,0,1,0,0,0,1 @ F,0,0,1,0,0,0,1 @ F,0,0,1,0,0,0,1 @ F,0,0,1,0,0,0,1 @ F,0,0,1,0,0,0,1 @ F,0,0,1,0,0,0,1 @ F,0,0,1,0,0,0,1 @ F,0,0,1,0,0,0,1 @ F,0,0,1,0,0,0,1 @ F,0,0,1,0,0,0,1 @ F,0,0,1,0,0,0,1 @ F,0,0,1,0,0,0,1 @ F,0,0,1,0,0,0,1 @ F,0,0,1,0,0,0,1 @ F,0,0,1,0,0,0,1 @ F,0,0,1,0,0,0,1 @ F,0,0,1,0,0,0,1 @ F,0,0,1,0,0,0,1 @ F,0,0,1,0,0,0,1 @ F,0,0,1,0,0,0,1 @ F,0,0,1,0,0,0,1 @ F,0,0,1,0,0,0,1 @ F,0,0,1,0,0,0,1 @ F,0,0,1,0,0,0,1 @ F,0,0,1,0,0,0,1 @ F,0,0,1,0,0,0,1 @ F,0,0,1,0,0,0,1 @ F,0,0,1,0,0,0,1 @ F,0,0,1,0,0,0,1 @ F,0,0,1,0,0,0,1 @ F,0,0,1,0,0,0,1 @ F,0,0,1,0,0,0,1 @ F,0,0,1,0,0,0,1 @ F,0,0,1,0,34.931088,0,1 @ F,0,0,1,0,0,0,1 @ F,0,0,1,0,0,0,1 @ F,0,0,1,0,0,0,1 @ F,0,0,1,0,0,0,1 @ F,0,0,1,0,0,0,1 @ F,0,0,1,0,0,0,1 @ F,0,0,1,0,0,0,1 @ F,0,0,1,0,0,0,1 @ F,0,0,1,0,0,0,1 @ F,0,0,1,0,0,0,1 @ F,0,0,1,0,0,0,1 @ F,0,0,1,0,0,0,1 @ F,0,0,1,0,0,0,1"
       radius="0"
       unit="px"
       method="auto"
       mode="F"
       chamfer_steps="1"
       flexible="false"
       use_knot_distance="true"
       apply_no_radius="true"
       apply_with_radius="true"
       only_selected="false"
       hide_knots="false" />
    <inkscape:path-effect
       effect="fillet_chamfer"
       id="path-effect30"
       is_visible="true"
       lpeversion="1"
       nodesatellites_param="F,0,0,1,0,0,0,1 @ F,0,0,1,0,0,0,1 @ F,0,0,1,0,0,0,1 @ F,0,0,1,0,0,0,1 @ F,0,0,1,0,0,0,1 @ F,0,0,1,0,0,0,1 @ F,0,0,1,0,0,0,1 @ F,0,0,1,0,0,0,1 @ F,0,0,1,0,0,0,1 @ F,0,0,1,0,0,0,1 @ F,0,0,1,0,0,0,1 @ F,0,0,1,0,0,0,1 @ F,0,0,1,0,0,0,1 @ F,0,0,1,0,0,0,1 @ F,0,0,1,0,0,0,1 @ F,0,0,1,0,0,0,1 @ F,0,0,1,0,0,0,1 @ F,0,0,1,0,0,0,1 @ F,0,0,1,0,0,0,1 @ F,0,0,1,0,0,0,1 @ F,0,0,1,0,0,0,1 @ F,0,0,1,0,0,0,1 @ F,0,0,1,0,0,0,1 @ F,0,0,1,0,0,0,1 @ F,0,0,1,0,0,0,1 @ F,0,0,1,0,33.142979,0,1 @ F,0,0,1,0,0,0,1 @ F,0,0,1,0,0,0,1 @ F,0,0,1,0,0,0,1 @ F,0,0,1,0,0,0,1 @ F,0,0,1,0,0,0,1 @ F,0,0,1,0,0,0,1 @ F,0,0,1,0,0,0,1 @ F,0,0,1,0,0,0,1 @ F,0,0,1,0,0,0,1 @ F,0,0,1,0,0,0,1 @ F,0,0,1,0,0,0,1 @ F,0,0,1,0,0,0,1 @ F,0,0,1,0,0,0,1 @ F,0,0,1,0,0,0,1 @ F,0,0,1,0,0,0,1 @ F,0,0,1,0,0,0,1 @ F,0,0,1,0,0,0,1 @ F,0,0,1,0,0,0,1 @ F,0,0,1,0,0,0,1 @ F,0,0,1,0,0,0,1 @ F,0,0,1,0,0,0,1 @ F,0,0,1,0,0,0,1 @ F,0,0,1,0,0,0,1 @ F,0,0,1,0,0,0,1 @ F,0,0,1,0,0,0,1 @ F,0,0,1,0,0,0,1 @ F,0,0,1,0,0,0,1 @ F,0,0,1,0,0,0,1 @ F,0,0,1,0,0,0,1 @ F,0,0,1,0,0,0,1 @ F,0,0,1,0,0,0,1 @ F,0,0,1,0,0,0,1 @ F,0,0,1,0,0,0,1 @ F,0,0,1,0,0,0,1 @ F,0,0,1,0,0,0,1 @ F,0,0,1,0,0,0,1 @ F,0,0,1,0,0,0,1 @ F,0,0,1,0,0,0,1 @ F,0,0,1,0,0,0,1 @ F,0,0,1,0,0,0,1 @ F,0,0,1,0,0,0,1 @ F,0,0,1,0,0,0,1 @ F,0,0,1,0,0,0,1 @ F,0,0,1,0,0,0,1 @ F,0,0,1,0,0,0,1 @ F,0,0,1,0,0,0,1 @ F,0,0,1,0,0,0,1 @ F,0,0,1,0,0,0,1 @ F,0,0,1,0,0,0,1 @ F,0,0,1,0,0,0,1 @ F,0,0,1,0,0,0,1 @ F,0,0,1,0,0,0,1"
       radius="0"
       unit="px"
       method="auto"
       mode="F"
       chamfer_steps="1"
       flexible="false"
       use_knot_distance="true"
       apply_no_radius="true"
       apply_with_radius="true"
       only_selected="false"
       hide_knots="false" />
    <inkscape:path-effect
       effect="fillet_chamfer"
       id="path-effect29"
       is_visible="true"
       lpeversion="1"
       nodesatellites_param="F,0,0,1,0,0,0,1 @ F,0,0,1,0,0,0,1 @ F,0,0,1,0,0,0,1 @ F,0,0,1,0,0,0,1 @ F,0,0,1,0,0,0,1 @ F,0,0,1,0,0,0,1 @ F,0,0,1,0,0,0,1 @ F,0,0,1,0,0,0,1 @ F,0,0,1,0,0,0,1 @ F,0,0,1,0,0,0,1 @ F,0,0,1,0,0,0,1 @ F,0,0,1,0,0,0,1 @ F,0,0,1,0,5.883653,0,1 @ F,0,0,1,0,0,0,1 @ F,0,0,1,0,0,0,1 @ F,0,0,1,0,0,0,1 @ F,0,0,1,0,0,0,1 @ F,0,0,1,0,0,0,1 @ F,0,0,1,0,0,0,1 @ F,0,0,1,0,0,0,1 @ F,0,0,1,0,0,0,1 @ F,0,0,1,0,0,0,1 @ F,0,0,1,0,0,0,1 @ F,0,0,1,0,0,0,1 @ F,0,0,1,0,0,0,1 @ F,0,0,1,0,0,0,1 @ F,0,0,1,0,0,0,1 @ F,0,0,1,0,19.451316,0,1 @ F,0,0,1,0,0,0,1 @ F,0,0,1,0,0,0,1 @ F,0,0,1,0,0,0,1 @ F,0,0,1,0,0,0,1 @ F,0,0,1,0,0,0,1 @ F,0,0,1,0,0,0,1 @ F,0,0,1,0,0,0,1 @ F,0,0,1,0,0,0,1 @ F,0,0,1,0,0,0,1 @ F,0,0,1,0,0,0,1 @ F,0,0,1,0,0,0,1 @ F,0,0,1,0,0,0,1 @ F,0,0,1,0,0,0,1 @ F,0,0,1,0,0,0,1 @ F,0,0,1,0,0,0,1 @ F,0,0,1,0,0,0,1 @ F,0,0,1,0,0,0,1 @ F,0,0,1,0,0,0,1 @ F,0,0,1,0,0,0,1 @ F,0,0,1,0,0,0,1 @ F,0,0,1,0,0,0,1 @ F,0,0,1,0,0,0,1 @ F,0,0,1,0,0,0,1 @ F,0,0,1,0,0,0,1 @ F,0,0,1,0,0,0,1 @ F,0,0,1,0,0,0,1 @ F,0,0,1,0,0,0,1 @ F,0,0,1,0,0,0,1 @ F,0,0,1,0,0,0,1 @ F,0,0,1,0,0,0,1 @ F,0,0,1,0,0,0,1 @ F,0,0,1,0,0,0,1 @ F,0,0,1,0,0,0,1 @ F,0,0,1,0,0,0,1 @ F,0,0,1,0,0,0,1 @ F,0,0,1,0,0,0,1 @ F,0,0,1,0,0,0,1 @ F,0,0,1,0,0,0,1 @ F,0,0,1,0,0,0,1 @ F,0,0,1,0,0,0,1 @ F,0,0,1,0,0,0,1 @ F,0,0,1,0,0,0,1 @ F,0,0,1,0,0,0,1 @ F,0,0,1,0,22.197472,0,1 @ F,0,0,1,0,0,0,1 @ F,0,0,1,0,0,0,1 @ F,0,0,1,0,0,0,1 @ F,0,0,1,0,0,0,1 @ F,0,0,1,0,0,0,1 @ F,0,0,1,0,0,0,1 @ F,0,0,1,0,0,0,1 @ F,0,0,1,0,0,0,1 @ F,0,0,1,0,0,0,1 @ F,0,0,1,0,0,0,1 @ F,0,0,1,0,0,0,1 @ F,0,0,1,0,0,0,1 @ F,0,0,1,0,0,0,1 @ F,0,0,1,0,0,0,1 @ F,0,0,1,0,0,0,1"
       radius="0"
       unit="px"
       method="auto"
       mode="F"
       chamfer_steps="1"
       flexible="false"
       use_knot_distance="true"
       apply_no_radius="true"
       apply_with_radius="true"
       only_selected="false"
       hide_knots="false" />
    <inkscape:path-effect
       effect="fillet_chamfer"
       id="path-effect27"
       is_visible="true"
       lpeversion="1"
       nodesatellites_param="F,0,0,1,0,0,0,1 @ F,0,0,1,0,0,0,1 @ F,0,0,1,0,0,0,1 @ F,0,0,1,0,0,0,1 @ F,0,0,1,0,0,0,1 @ F,0,0,1,0,0,0,1 @ F,0,0,1,0,0,0,1 @ F,0,0,1,0,0,0,1 @ F,0,0,1,0,0,0,1 @ F,0,0,1,0,0,0,1 @ F,0,0,1,0,0,0,1 @ F,0,0,1,0,0,0,1 @ F,0,0,1,0,5.883653,0,1 @ F,0,0,1,0,0,0,1 @ F,0,0,1,0,0,0,1 @ F,0,0,1,0,0,0,1 @ F,0,0,1,0,0,0,1 @ F,0,0,1,0,0,0,1 @ F,0,0,1,0,0,0,1 @ F,0,0,1,0,0,0,1 @ F,0,0,1,0,0,0,1 @ F,0,0,1,0,0,0,1 @ F,0,0,1,0,0,0,1 @ F,0,0,1,0,0,0,1 @ F,0,0,1,0,0,0,1 @ F,0,0,1,0,0,0,1 @ F,0,0,1,0,0,0,1 @ F,0,0,1,0,19.451316,0,1 @ F,0,0,1,0,0,0,1 @ F,0,0,1,0,0,0,1 @ F,0,0,1,0,0,0,1 @ F,0,0,1,0,0,0,1 @ F,0,0,1,0,0,0,1 @ F,0,0,1,0,0,0,1 @ F,0,0,1,0,0,0,1 @ F,0,0,1,0,0,0,1 @ F,0,0,1,0,0,0,1 @ F,0,0,1,0,0,0,1 @ F,0,0,1,0,0,0,1 @ F,0,0,1,0,0,0,1 @ F,0,0,1,0,0,0,1 @ F,0,0,1,0,0,0,1 @ F,0,0,1,0,0,0,1 @ F,0,0,1,0,0,0,1 @ F,0,0,1,0,0,0,1 @ F,0,0,1,0,0,0,1 @ F,0,0,1,0,0,0,1 @ F,0,0,1,0,0,0,1 @ F,0,0,1,0,0,0,1 @ F,0,0,1,0,0,0,1 @ F,0,0,1,0,0,0,1 @ F,0,0,1,0,0,0,1 @ F,0,0,1,0,0,0,1 @ F,0,0,1,0,0,0,1 @ F,0,0,1,0,0,0,1 @ F,0,0,1,0,0,0,1 @ F,0,0,1,0,0,0,1 @ F,0,0,1,0,0,0,1 @ F,0,0,1,0,0,0,1 @ F,0,0,1,0,0,0,1 @ F,0,0,1,0,0,0,1 @ F,0,0,1,0,0,0,1 @ F,0,0,1,0,0,0,1 @ F,0,0,1,0,0,0,1 @ F,0,0,1,0,0,0,1 @ F,0,0,1,0,0,0,1 @ F,0,0,1,0,0,0,1 @ F,0,0,1,0,0,0,1 @ F,0,0,1,0,0,0,1 @ F,0,0,1,0,0,0,1 @ F,0,0,1,0,0,0,1 @ F,0,0,1,0,22.197472,0,1 @ F,0,0,1,0,0,0,1 @ F,0,0,1,0,0,0,1 @ F,0,0,1,0,0,0,1 @ F,0,0,1,0,0,0,1 @ F,0,0,1,0,0,0,1 @ F,0,0,1,0,0,0,1 @ F,0,0,1,0,0,0,1 @ F,0,0,1,0,0,0,1 @ F,0,0,1,0,0,0,1 @ F,0,0,1,0,0,0,1 @ F,0,0,1,0,0,0,1 @ F,0,0,1,0,0,0,1 @ F,0,0,1,0,0,0,1 @ F,0,0,1,0,0,0,1 @ F,0,0,1,0,0,0,1"
       radius="0"
       unit="px"
       method="auto"
       mode="F"
       chamfer_steps="1"
       flexible="false"
       use_knot_distance="true"
       apply_no_radius="true"
       apply_with_radius="true"
       only_selected="false"
       hide_knots="false" />
    <inkscape:path-effect
       effect="fillet_chamfer"
       id="path-effect26"
       is_visible="true"
       lpeversion="1"
       nodesatellites_param="F,0,1,1,0,67.85974,0,1 @ F,0,0,1,0,67.85974,0,1 @ F,0,1,1,0,67.85974,0,1 @ F,0,1,1,0,67.85974,0,1"
       radius="0"
       unit="px"
       method="auto"
       mode="F"
       chamfer_steps="1"
       flexible="false"
       use_knot_distance="true"
       apply_no_radius="true"
       apply_with_radius="true"
       only_selected="false"
       hide_knots="false" />
    <inkscape:path-effect
       effect="fillet_chamfer"
       id="path-effect25"
       is_visible="true"
       lpeversion="1"
       nodesatellites_param="F,0,0,1,0,0,0,1 @ F,0,0,1,0,0,0,1 @ F,0,0,1,0,0,0,1 @ F,0,0,1,0,0,0,1"
       radius="0"
       unit="px"
       method="auto"
       mode="F"
       chamfer_steps="1"
       flexible="false"
       use_knot_distance="true"
       apply_no_radius="true"
       apply_with_radius="true"
       only_selected="false"
       hide_knots="false" />
    <pattern
       patternUnits="userSpaceOnUse"
       width="1920"
       height="1080"
       patternTransform="scale(1)"
       preserveAspectRatio="xMidYMid"
       id="pattern20"
       inkscape:label="pattern20">
      <rect
         style="fill:url(#linearGradient20);fill-opacity:1;stroke:none;stroke-width:2;stroke-linecap:square;stroke-linejoin:round"
         id="rect1"
         width="1920"
         height="300"
         x="0"
         y="390" />
      <circle
         style="fill:url(#radialGradient7);stroke:none;stroke-width:2;stroke-linecap:square;stroke-linejoin:round"
         id="path1"
         cx="960"
         cy="540"
         r="540" />
      <circle
         style="fill:url(#radialGradient10);stroke:none;stroke-width:1.99937;stroke-linecap:square;stroke-linejoin:round;stroke-dasharray:none"
         id="path2"
         cx="960"
         cy="540"
         r="300" />
      <circle
         style="fill-opacity:1;stroke:none;stroke-width:2;stroke-linecap:square;stroke-linejoin:round"
         id="path3"
         cx="703"
         cy="124"
         r="20" />
      <circle
         style="fill-opacity:1;stroke:none;stroke-width:2;stroke-linecap:square;stroke-linejoin:round"
         id="ellipse3"
         cx="1217"
         cy="124"
         r="20" />
      <circle
         style="fill-opacity:1;stroke:none;stroke-width:2;stroke-linecap:square;stroke-linejoin:round"
         id="circle3"
         cx="1450"
         cy="540"
         r="20" />
      <circle
         style="fill-opacity:1;stroke:none;stroke-width:2;stroke-linecap:square;stroke-linejoin:round"
         id="circle4"
         cx="470"
         cy="540"
         r="20" />
      <circle
         style="fill-opacity:1;stroke:none;stroke-width:2;stroke-linecap:square;stroke-linejoin:round"
         id="circle5"
         cx="703"
         cy="956"
         r="20" />
      <circle
         style="fill-opacity:1;stroke:none;stroke-width:2;stroke-linecap:square;stroke-linejoin:round"
         id="circle6"
         cx="1217"
         cy="956"
         r="20" />
    </pattern>
    <linearGradient
       inkscape:collect="always"
       xlink:href="#linearGradient18"
       id="linearGradient20"
       x1="270.39453"
       y1="393.59412"
       x2="270.39453"
       y2="686.68237"
       gradientUnits="userSpaceOnUse" />
    <linearGradient
       id="linearGradient18"
       inkscape:collect="always">
      <stop
         style="stop-color:#929292;stop-opacity:1;"
         offset="0"
         id="stop19" />
      <stop
         style="stop-color:#e8e8e8;stop-opacity:1;"
         offset="1"
         id="stop20" />
    </linearGradient>
    <radialGradient
       inkscape:collect="always"
       xlink:href="#linearGradient6"
       id="radialGradient7"
       cx="960"
       cy="540"
       fx="960"
       fy="540"
       r="541"
       gradientUnits="userSpaceOnUse" />
    <linearGradient
       id="linearGradient6"
       inkscape:collect="always">
      <stop
         style="stop-color:#6c6c6c;stop-opacity:1;"
         offset="0"
         id="stop6" />
      <stop
         style="stop-color:#9f9f9f;stop-opacity:1;"
         offset="0.69617236"
         id="stop8" />
      <stop
         style="stop-color:#f3f3f3;stop-opacity:1;"
         offset="1"
         id="stop7" />
    </linearGradient>
    <radialGradient
       inkscape:collect="always"
       xlink:href="#linearGradient8"
       id="radialGradient10"
       cx="960"
       cy="540"
       fx="960"
       fy="540"
       r="301"
       gradientUnits="userSpaceOnUse" />
    <linearGradient
       id="linearGradient8"
       inkscape:collect="always">
      <stop
         style="stop-color:#0918ff;stop-opacity:1;"
         offset="0.16016607"
         id="stop12" />
      <stop
         style="stop-color:#5d67ff;stop-opacity:1;"
         offset="0.38842586"
         id="stop11" />
      <stop
         style="stop-color:#838bff;stop-opacity:1;"
         offset="0.69546497"
         id="stop9" />
      <stop
         style="stop-color:#0011ff;stop-opacity:1;"
         offset="1"
         id="stop10" />
    </linearGradient>
    <radialGradient
       inkscape:collect="always"
       xlink:href="#linearGradient72"
       id="radialGradient74"
       cx="959.98596"
       cy="539.99268"
       fx="959.98596"
       fy="539.99268"
       r="954.02783"
       gradientTransform="matrix(1,0,0,0.55758747,0,238.89951)"
       gradientUnits="userSpaceOnUse" />
    <linearGradient
       inkscape:collect="always"
       xlink:href="#linearGradient79"
       id="linearGradient80"
       x1="606.69318"
       y1="277.10559"
       x2="1252.761"
       y2="773.76782"
       gradientUnits="userSpaceOnUse" />
    <linearGradient
       inkscape:collect="always"
       xlink:href="#linearGradient18"
       id="linearGradient81"
       gradientUnits="userSpaceOnUse"
       x1="270.39453"
       y1="393.59412"
       x2="270.39453"
       y2="686.68237"
       gradientTransform="translate(-6.3867187e-6,4.4140625e-5)" />
    <radialGradient
       inkscape:collect="always"
       xlink:href="#linearGradient6"
       id="radialGradient81"
       gradientUnits="userSpaceOnUse"
       cx="960"
       cy="540"
       fx="960"
       fy="540"
       r="541"
       gradientTransform="translate(-6.3867187e-6,4.4140625e-5)" />
    <radialGradient
       inkscape:collect="always"
       xlink:href="#linearGradient91"
       id="radialGradient82"
       gradientUnits="userSpaceOnUse"
       cx="960"
       cy="540"
       fx="960"
       fy="540"
       r="301"
       gradientTransform="translate(-6.3867187e-6,4.4140625e-5)" />
    <pattern
       patternUnits="userSpaceOnUse"
       width="1920"
       height="1080.0001"
       patternTransform="translate(-506.4837,-1209.1252)"
       preserveAspectRatio="xMidYMid"
       id="pattern91"
       style="fill:#000000"
       inkscape:label="pattern91">
      <rect
         style="fill:none;stroke:none"
         width="1920"
         height="1080"
         x="0"
         y="0"
         id="rect20" />
      <rect
         style="fill:url(#linearGradient81);fill-opacity:1;stroke:none;stroke-width:2;stroke-linecap:square;stroke-linejoin:round"
         id="rect80"
         width="1920"
         height="300"
         x="0"
         y="390.00006" />
      <circle
         style="fill:url(#radialGradient81);stroke:none;stroke-width:2;stroke-linecap:square;stroke-linejoin:round"
         id="circle81"
         cx="960"
         cy="540.00006"
         r="540" />
      <circle
         style="fill:url(#radialGradient82);stroke:none;stroke-width:1.99937;stroke-linecap:square;stroke-linejoin:round;stroke-dasharray:none"
         id="circle82"
         cx="960"
         cy="540.00006"
         r="300" />
      <circle
         style="fill-opacity:1;stroke:none;stroke-width:2;stroke-linecap:square;stroke-linejoin:round"
         id="circle83"
         cx="703"
         cy="124"
         r="20" />
      <circle
         style="fill-opacity:1;stroke:none;stroke-width:2;stroke-linecap:square;stroke-linejoin:round"
         id="circle84"
         cx="1217"
         cy="124"
         r="20" />
      <circle
         style="fill-opacity:1;stroke:none;stroke-width:2;stroke-linecap:square;stroke-linejoin:round"
         id="circle85"
         cx="1450"
         cy="540.00006"
         r="20" />
      <circle
         style="fill-opacity:1;stroke:none;stroke-width:2;stroke-linecap:square;stroke-linejoin:round"
         id="circle86"
         cx="470"
         cy="540.00006"
         r="20" />
      <circle
         style="fill-opacity:1;stroke:none;stroke-width:2;stroke-linecap:square;stroke-linejoin:round"
         id="circle87"
         cx="703"
         cy="956.00006"
         r="20" />
      <circle
         style="fill-opacity:1;stroke:none;stroke-width:2;stroke-linecap:square;stroke-linejoin:round"
         id="circle88"
         cx="1217"
         cy="956.00006"
         r="20" />
    </pattern>
    <linearGradient
       inkscape:collect="always"
       xlink:href="#linearGradient104"
       id="linearGradient105"
       x1="64.484879"
       y1="449.01471"
       x2="355.39746"
       y2="620.4375"
       gradientUnits="userSpaceOnUse" />
    <linearGradient
       inkscape:collect="always"
       xlink:href="#linearGradient104"
       id="linearGradient107"
       gradientUnits="userSpaceOnUse"
       x1="64.484879"
       y1="449.01471"
       x2="355.39746"
       y2="620.4375"
       gradientTransform="translate(1499.7955,-0.50033602)" />
    <linearGradient
       inkscape:collect="always"
       xlink:href="#linearGradient19"
       id="linearGradient22"
       x1="759.89935"
       y1="84.558868"
       x2="1157.1011"
       y2="285.01047"
       gradientUnits="userSpaceOnUse" />
  </defs>
  <path
     id="path25"
     style="opacity:1;fill:#a2a2a2;fill-opacity:1;stroke:none;stroke-width:2;stroke-linecap:round;stroke-dasharray:none;stroke-opacity:1"
     d="M 960 2 C 663.30335 2.051898 402.31586 160.17519 319.59375 390 L 67.859375 390 C 30.381796 390.0002 0.00019882027 420.38179 0 457.85938 L 0 622.14062 C 0.00019882027 659.61821 30.381796 689.9998 67.859375 690 L 319.59375 690 C 402.31586 919.82481 663.30335 1077.9481 960 1078 C 1256.6966 1077.948 1517.6841 919.8248 1600.4062 690 L 1852.1406 690 C 1889.6182 689.99981 1919.9998 659.61822 1920 622.14062 L 1920 457.85938 C 1919.9998 420.38178 1889.6182 390.00019 1852.1406 390 L 1600.5039 390 C 1517.7717 160.14717 1256.7328 2.0168625 960 2 z M 952.5918 30.111328 C 964.02084 30.016199 975.50102 30.159501 986.89258 30.539062 C 1005.6541 31.171405 1024.3223 32.455926 1042.9609 34.412109 C 1057.4389 35.92675 1071.8614 37.844875 1086.2246 40.160156 C 1125.3232 46.471332 1163.9948 55.768312 1201.541 68.021484 C 1228.8466 76.93449 1255.5502 87.413926 1281.5723 99.525391 C 1290.8371 103.84217 1300.1243 108.41558 1309.166 113.13672 C 1333.1266 125.63743 1356.3857 139.6069 1378.5508 154.9668 C 1385.2949 159.62973 1392.1428 164.59712 1398.6875 169.51953 C 1416.7658 183.17267 1434.1398 197.86928 1450.4766 213.50781 C 1483.3501 244.94328 1512.4089 280.47313 1535.877 319.46875 C 1549.7215 342.4818 1561.6388 366.59954 1571.1465 391.69922 C 1573.3404 398.26658 1577.4763 404.12611 1582.8047 408.5293 C 1589.05 413.67508 1596.7164 417.48451 1604.8945 417.95312 C 1683.4907 417.99652 1762.0874 418.00181 1840.6836 418.00781 C 1846.2635 418.07559 1851.8748 417.7134 1857.4238 418.46484 C 1859.2323 418.69984 1861.3939 419.11681 1863.2871 419.6543 C 1876.4298 423.32536 1887.0638 434.40728 1890.5684 447.54492 C 1891.3837 450.49872 1891.7943 453.50426 1891.8223 456.5957 C 1892.0412 510.41099 1891.9201 564.22744 1892.0312 618.04297 C 1892.0633 624.36436 1891.5598 630.82194 1889.1855 636.74414 C 1883.7521 650.83885 1869.618 661.11224 1854.5195 661.8457 C 1785.3737 661.93911 1716.228 661.95241 1647.082 661.97461 C 1631.0266 661.95441 1614.9711 661.99009 1598.916 661.93359 C 1591.4683 661.74413 1584.0038 665.066 1579.2148 670.78125 C 1577.3103 672.97486 1576.0349 675.61184 1574.9883 678.29883 C 1572.6633 684.06132 1570.5766 689.91814 1568.2129 695.66602 C 1555.1401 728.11183 1538.1369 759.03552 1518.1777 787.67578 C 1507.8803 802.42697 1496.7834 816.61871 1484.9883 830.20117 C 1480.5992 835.26747 1475.9797 840.37104 1471.3965 845.26562 C 1462.8635 854.36885 1453.9882 863.20567 1444.8906 871.67773 C 1426.7241 888.59875 1407.4095 904.34346 1387.293 918.79102 C 1363.6069 935.83031 1338.6282 951.21209 1312.9043 964.84375 C 1265.1806 990.12504 1214.4131 1009.6666 1162.3438 1023.584 C 1148.4525 1027.2949 1134.3301 1030.6426 1120.2578 1033.5566 C 1102.1183 1037.3183 1083.8636 1040.4211 1065.5371 1042.877 C 1038.942 1046.44 1012.1603 1048.6465 985.41406 1049.5098 C 956.46217 1050.4377 927.46272 1049.78 898.6543 1047.5547 C 877.99234 1045.9566 857.43216 1043.5544 837.01172 1040.3418 C 804.37193 1035.2152 772.01723 1027.9971 740.38867 1018.7422 C 720.8614 1013.0358 701.44115 1006.4758 682.44727 999.14844 C 663.76982 991.94132 645.39014 983.95686 627.39844 975.17578 C 609.15901 966.28046 591.1956 956.50725 573.83594 945.9668 C 536.721 923.45567 501.77309 897.13842 470.37695 867.21289 C 463.70614 860.8585 457.14019 854.28427 450.83594 847.63477 C 437.94174 834.0498 425.71301 819.72845 414.39258 804.88867 C 387.12208 769.13353 364.55244 729.59292 348.64258 687.56836 C 346.95957 682.3113 344.06104 677.44385 340.16797 673.52344 C 334.27362 667.74879 326.73841 663.31499 318.46289 662.23633 C 315.97347 661.95532 313.45688 662.0909 310.95508 662.0332 C 248.06574 661.9938 185.17649 661.97008 122.28711 661.98828 C 105.32528 662.00488 88.361969 661.97704 71.400391 662.02344 C 65.372174 662.03921 59.229886 661.52495 53.570312 659.30664 C 39.478502 654.01506 29.126801 640.05294 28.171875 625.0293 C 27.984679 572.03594 28.041083 519.0424 28.001953 466.04883 C 27.870935 458.73276 27.867864 451.1937 30.458984 444.24219 C 35.358836 430.30719 48.734909 419.88743 63.388672 418.30859 C 68.68038 418.11253 73.983079 418.15605 79.279297 418.12305 C 141.08348 418.05625 202.88717 418.01696 264.69141 418.03516 C 282.64358 418.06856 300.597 417.97949 318.54883 418.11719 C 324.06211 418.44045 329.72654 417.34345 334.51367 414.52539 C 338.94018 412.02348 342.41953 407.98845 344.38281 403.31055 C 347.61476 395.14728 350.63033 386.89624 354.05859 378.81055 C 355.99166 374.21323 358.0547 369.4979 360.1582 364.9082 C 368.7377 346.24957 378.65757 328.03507 389.66992 310.62891 C 392.49072 306.1565 395.45577 301.64352 398.42578 297.27344 C 412.44493 276.62996 428.10101 257.00281 444.93945 238.67578 C 461.85333 220.26881 480.11797 202.99481 499.29492 187.04883 C 530.87455 160.77753 565.2402 137.83443 601.2793 118.27539 C 624.60067 105.619 648.79909 94.295813 673.41797 84.416016 C 703.75394 72.22693 734.92946 62.145725 766.56055 54.101562 C 779.83448 50.724706 793.33309 47.677914 806.74023 45.027344 C 826.74532 41.066009 846.87384 37.905884 867.08008 35.527344 C 895.50274 32.179748 923.98569 30.388642 952.5918 30.111328 z " />
  <path
     id="path27"
     style="opacity:1;fill:url(#radialGradient74);fill-opacity:1;stroke:none;stroke-width:2;stroke-linecap:round;stroke-dasharray:none;stroke-opacity:1"
     d="M 957.08594 8.0429688 C 878.95446 8.356934 800.81188 19.754357 726.05273 42.535156 C 662.25459 61.996842 600.87632 89.795291 544.91211 126.16992 C 495.79123 158.08574 450.86018 196.68434 413.08984 241.52734 C 383.16199 277.02645 357.78433 316.45906 338.73047 358.83203 C 333.72866 369.884 329.23013 381.15689 325.0293 392.53516 C 324.6643 393.41561 324.38372 394.37185 323.86328 395.16211 C 322.82126 395.93563 321.38188 395.77973 320.24805 395.875 C 314.61597 396.13848 308.97393 395.91625 303.33789 396.00391 C 224.00968 396.01551 144.68144 396.02653 65.353516 396.08203 C 46.009847 396.79475 27.254893 407.20228 16.554688 423.35547 C 9.1304753 434.34495 5.5124286 447.75822 6.0019531 460.98438 C 6.0280141 515.64274 5.9556471 570.30096 6.09375 624.95898 C 6.9010898 644.42705 17.543895 663.25459 33.939453 673.82422 C 44.605408 680.85708 57.486193 684.39638 70.244141 683.96484 L 311.41992 684.04492 C 318.27353 684.52388 320.87137 685.55419 325.04688 690.89258 C 327.73993 694.52145 330.41311 701.88653 332.19922 705.97266 C 354.55847 760.79312 387.4659 811.05902 427.33398 854.73242 C 474.40437 906.3191 530.96331 948.86841 592.35742 981.95898 C 657.38754 1017.014 727.88282 1041.6045 800.25781 1056.1523 C 849.26158 1065.9648 899.17514 1071.2115 949.14648 1071.875 C 1009.0389 1072.6663 1069.0275 1066.9007 1127.6348 1054.5156 C 1181.0335 1043.223 1233.3099 1026.4464 1283.0684 1003.9844 C 1330.8696 982.41168 1376.3721 955.59398 1417.8633 923.48047 C 1456.4832 893.6063 1491.6428 859.13528 1521.4609 820.4375 C 1549.0019 784.70926 1571.9959 745.38558 1588.7969 703.49023 C 1591.2454 697.37727 1593.5207 691.19065 1595.9414 685.07031 C 1596.7987 683.87548 1598.4265 683.83122 1599.752 683.97266 C 1682.8515 684.02046 1765.9513 683.98149 1849.0508 683.92969 C 1852.9491 683.91739 1856.8663 683.97655 1860.7305 683.375 C 1878.1363 680.93403 1894.3681 670.76349 1903.8965 655.95508 C 1910.9809 645.19563 1914.4144 632.17913 1913.9766 619.33203 C 1913.9866 564.95768 1914.0282 510.5829 1913.9102 456.20898 C 1913.6903 442.29164 1908.2983 428.62202 1899.3672 417.99609 C 1893.3524 410.7719 1885.6127 405.02537 1877.002 401.26758 C 1868.4208 397.48859 1858.9848 395.75068 1849.6211 396.03516 C 1772.5701 395.98266 1695.5178 396.03364 1618.4668 395.96094 C 1615.5401 395.91144 1610.0656 396.35361 1606.7852 395.97266 C 1600.5057 394.52572 1597.2439 394.40007 1593.8008 387.78516 C 1592.333 384.39687 1589.6 378.65755 1588.2871 375.00195 C 1571.5012 333.55637 1548.6531 294.65099 1521.3418 259.27734 C 1486.4049 214.02231 1444.2116 174.56425 1397.6641 141.45703 C 1356.1286 111.91992 1311.1182 87.358504 1264.0977 67.736328 C 1193.467 38.289368 1118.3663 19.869498 1042.2695 12.183594 C 1013.9727 9.3277842 985.52763 7.9514706 957.08594 8.0429688 z M 954.08789 22.0625 C 1011.1293 21.691842 1068.2307 27.274585 1124.0586 39.021484 C 1171.8267 49.063425 1218.6707 63.606078 1263.5879 82.732422 C 1304.6091 100.20651 1344.0243 121.53125 1380.8008 146.76172 C 1421.4201 174.62621 1458.828 207.30467 1491.1387 244.52148 C 1524.4393 282.83921 1552.2604 326.06658 1572.1992 372.79883 C 1573.7178 376.22717 1575.059 379.72609 1576.4492 383.20703 C 1578.8614 389.17063 1582.5828 394.61142 1587.3867 398.90234 C 1594.4607 405.20413 1603.5606 409.57102 1613.123 409.91992 C 1691.3502 410.03162 1769.5773 409.99933 1847.8047 410.01562 C 1855.995 409.69702 1864.3492 410.88086 1871.8496 414.29492 C 1887.8218 421.32411 1899.1038 437.82431 1899.873 455.25586 C 1900.0525 509.62258 1899.9577 563.99034 1900.0117 618.35742 C 1900.285 626.5939 1898.9432 634.97079 1895.4219 642.46289 C 1888.2779 658.13042 1871.954 669.08536 1854.7656 669.85938 C 1847.1314 669.93307 1839.4929 669.88752 1831.8574 669.91602 C 1765.5868 669.97722 1699.3156 670.00061 1633.0449 669.97461 C 1621.4637 669.94761 1609.8812 669.97326 1598.3008 669.91406 C 1592.2165 669.92117 1586.1488 673.36064 1583.3828 678.8418 C 1582.0986 681.74856 1581.0695 684.76421 1579.9082 687.72266 C 1570.682 712.36814 1559.3325 736.21554 1546.0605 758.93945 C 1520.4008 802.9442 1487.7439 842.71708 1450.5078 877.41602 C 1409.9702 915.18815 1364.0355 946.99603 1315.0449 972.79883 C 1258.926 1002.3092 1198.7997 1024.0252 1137.0078 1038.1191 C 1063.3513 1054.9054 987.29584 1061.0173 911.89258 1056.4902 C 857.31763 1053.2259 803.05699 1044.4056 750.33398 1029.9062 C 693.7265 1014.3374 638.8371 992.25171 587.68555 963.38281 C 526.20784 928.69164 469.99078 884.08629 424.34375 830.08984 C 392.67263 792.62312 366.2013 750.62808 347.13281 705.38477 C 345.11852 700.92847 343.60733 696.26373 341.56055 691.82227 C 338.69175 685.44994 333.79849 680.1249 328.00586 676.27734 C 327.533 675.95873 326.86255 675.54207 326.49219 675.32031 C 321.57658 672.36982 315.99332 670.45979 310.25781 670.07617 C 290.37298 670.02977 270.48532 670.03959 250.59961 670.02539 C 190.61348 669.98409 130.62866 670.04311 70.642578 669.94531 C 61.818427 670.31996 52.857411 668.42631 45.091797 664.17383 C 30.469199 656.46209 20.59039 640.56972 20.115234 624.04883 C 19.967185 570.04774 20.027631 516.04636 20.019531 462.04492 C 19.668182 453.66978 20.966325 445.11735 24.597656 437.51172 C 31.71643 421.89879 47.959876 411.00876 65.068359 410.13086 C 142.63817 409.98631 220.20884 410.02035 297.7793 409.99805 C 304.33979 409.94555 310.90052 410.03262 317.46094 409.97852 C 319.19213 409.92464 320.77365 409.884 322.4668 409.75977 C 326.18485 409.59035 329.90939 408.38698 332.78125 405.96875 C 334.99472 404.21112 336.5304 401.75037 337.47266 399.10938 C 340.09722 392.26459 342.64514 385.388 345.46289 378.61914 C 364.57296 331.96694 391.59134 288.7049 424.08203 250.21484 C 463.52733 203.48635 510.93078 163.73868 562.75977 131.4082 C 625.95142 92.029687 695.68473 63.495534 767.86914 45.494141 C 828.71449 30.298827 891.38651 22.583802 954.08789 22.0625 z " />
  <path
     id="path29"
     style="opacity:1;mix-blend-mode:normal;fill:url(#pattern98);fill-opacity:1;stroke:none;stroke-width:2;stroke-linecap:round;stroke-dasharray:none;stroke-opacity:1"
     d="m 952.5918,30.111328 c -28.60614,0.277314 -57.08986,2.068031 -85.51255,5.41563 -20.20626,2.378543 -40.33352,5.539356 -60.33863,9.500695 -13.40716,2.650573 -26.90687,5.697776 -40.18082,9.074636 -31.63112,8.044171 -62.80558,18.124957 -93.14158,30.314055 -24.6189,9.879807 -48.81698,21.201816 -72.13838,33.858216 -36.03913,19.55906 -70.40495,42.50221 -101.98461,68.77353 -19.17697,15.946 -37.44156,33.22084 -54.35545,51.62783 -16.83846,18.32705 -32.49457,37.95311 -46.51373,58.59661 -2.97001,4.37009 -5.93475,8.88438 -8.75555,13.35679 -11.01236,17.40618 -20.93279,35.62023 -29.5123,54.27888 -2.10351,4.5897 -4.16654,9.30503 -6.09961,13.90235 -3.42827,8.0857 -6.44388,16.33663 -9.67583,24.49991 -1.96328,4.67791 -5.44262,8.71372 -9.86913,11.21563 -4.78714,2.81806 -10.4515,3.91435 -15.96479,3.59109 -17.95185,-0.1377 -35.90446,-0.0483 -53.85665,-0.0817 -61.8043,-0.0182 -123.60863,0.0198 -185.412873,0.0866 -5.296223,0.033 -10.598115,-0.0102 -15.889828,0.18586 -14.653778,1.57884 -28.031304,11.9986 -32.931161,25.93361 -2.591123,6.95152 -2.587217,14.49082 -2.456199,21.8069 0.03913,52.99362 -0.01745,105.98745 0.169746,158.98086 0.954927,15.02366 11.307374,28.98484 25.399199,34.27643 5.659579,2.21831 11.801862,2.73387 17.830085,2.7181 16.961595,-0.0464 33.923711,-0.0197 50.885561,-0.0363 62.88944,-0.0182 125.77894,0.006 188.66834,0.0454 2.5018,0.0577 5.01902,-0.0779 7.50844,0.20311 8.27553,1.07866 15.81012,5.51276 21.70447,11.28741 3.89308,3.92042 6.79105,8.78875 8.47406,14.04581 15.90988,42.0246 38.48072,81.56464 65.75125,117.31982 11.32044,14.83979 23.5492,29.16072 36.44341,42.7457 6.30426,6.64951 12.87,13.22437 19.54082,19.57877 31.39617,29.92556 66.34384,56.24212 103.45881,78.75327 17.35968,10.54046 35.32316,20.31394 53.56261,29.20927 17.99172,8.78109 36.37088,16.76524 55.04834,23.97236 18.9939,7.32734 38.41314,13.88734 57.94043,19.59374 31.62859,9.2549 63.98487,16.4724 96.62469,21.599 20.42046,3.2126 40.98014,5.6148 61.64212,7.2129 28.80845,2.2253 57.8067,2.8844 86.75862,1.9565 26.74627,-0.8633 53.52797,-3.0704 80.12307,-6.6335 18.3265,-2.4559 36.5812,-5.5596 54.7207,-9.3213 14.0723,-2.914 28.1948,-6.2608 42.0861,-9.9717 52.0694,-13.9174 102.8383,-33.4588 150.562,-58.74012 25.7239,-13.63167 50.7017,-29.01383 74.3878,-46.05314 20.1166,-14.44757 39.4312,-30.19248 57.5977,-47.11351 9.0976,-8.47207 17.9737,-17.30812 26.5067,-26.41135 4.5832,-4.89459 9.2016,-9.99929 13.5907,-15.06559 11.7951,-13.58248 22.8924,-27.77339 33.1898,-42.52459 19.9592,-28.64029 36.9631,-59.56461 50.0359,-92.01046 2.3637,-5.74788 4.4497,-11.60399 6.7747,-17.36649 1.0466,-2.68699 2.3212,-5.32348 4.2257,-7.51709 4.789,-5.71526 12.2535,-9.03839 19.7012,-8.84893 16.0551,0.0565 32.111,0.0215 48.1664,0.0417 69.146,-0.0222 138.292,-0.0354 207.4379,-0.12881 15.0985,-0.73346 29.2323,-11.00668 34.6658,-25.1014 2.3743,-5.92221 2.878,-12.37993 2.8459,-18.70133 -0.1112,-53.81558 0.01,-107.63193 -0.2089,-161.44727 -0.028,-3.09145 -0.4388,-6.0977 -1.2541,-9.0515 -3.5046,-13.13766 -14.1379,-24.21822 -27.2806,-27.88929 -1.8932,-0.53749 -4.0553,-0.95507 -5.8638,-1.19007 -5.549,-0.75144 -11.1603,-0.38956 -16.7402,-0.45734 -78.5963,-0.006 -157.1929,-0.011 -235.7891,-0.0544 -8.1781,-0.46862 -15.8445,-4.27738 -22.0898,-9.42317 -5.3284,-4.40319 -9.4645,-10.26383 -11.6584,-16.8312 -9.5077,-25.0997 -21.4253,-49.21712 -35.2699,-72.23019 -23.4681,-38.99566 -52.5263,-74.5259 -85.3999,-105.9614 -16.3368,-15.63855 -33.7107,-30.33419 -51.789,-43.98734 -6.5447,-4.92242 -13.3921,-9.89069 -20.1362,-14.55363 -22.1651,-15.35991 -45.4244,-29.32875 -69.385,-41.82947 -9.0417,-4.72114 -18.3287,-9.29368 -27.5935,-13.610464 -26.0221,-12.111477 -52.7269,-22.592205 -80.0325,-31.50522 -37.5463,-12.253185 -76.2173,-21.550153 -115.3159,-27.861335 -14.3632,-2.315284 -28.7861,-4.233514 -43.2641,-5.748156 -18.6387,-1.956185 -37.306,-3.240754 -56.06753,-3.873097 -11.39157,-0.379562 -22.87192,-0.522249 -34.30097,-0.42712 z" />
  <rect
     style="opacity:1;fill:#757575;fill-opacity:1;stroke:none;stroke-width:1;stroke-linecap:square;stroke-linejoin:round;stroke-dasharray:none;stroke-opacity:1"
     id="rect102"
     width="360"
     height="240"
     x="30"
     y="420"
     ry="38.276119" />
  <rect
     style="display:none;fill:url(#pattern91);stroke:none"
     width="1920"
     height="1080.0001"
     x="-506.4837"
     y="-1209.1252"
     id="rect91" />
  <path
     id="rect101"
     style="opacity:1;fill:#000000;fill-opacity:1;stroke:none;stroke-width:1;stroke-linecap:square;stroke-linejoin:round;stroke-dasharray:none;stroke-opacity:1"
     d="m 208.52734,434.01367 c -47.42703,0.0139 -94.85452,0.0228 -142.281246,0.0801 -10.619596,0.69688 -20.209918,9.30897 -21.839484,19.85915 -0.827946,5.88526 -0.222887,11.83878 -0.40265,17.75491 0.0173,50.73546 -0.03828,101.47141 0.114633,152.2065 0.745409,10.74997 9.657161,20.35372 20.361225,21.76974 6.163587,0.6145 12.367513,0.19811 18.549088,0.3237 90.196714,-0.0183 180.393714,-0.006 270.590234,-0.0898 10.6159,-0.64006 20.2403,-9.18685 21.95044,-19.71325 0.85093,-6.08383 0.26502,-12.2404 0.44003,-18.35706 -0.0234,-50.57353 -0.003,-101.14752 -0.11117,-151.72071 -0.74957,-10.54588 -9.2924,-20.03234 -19.75824,-21.70978 -3.83357,-0.671 -7.73841,-0.33237 -11.60739,-0.41471 -45.33515,0.004 -90.67031,0.007 -136.00547,0.0112 z" />
  <path
     id="rect100"
     style="opacity:1;fill:url(#linearGradient105);fill-opacity:1;stroke:#000000;stroke-width:1;stroke-linecap:square;stroke-linejoin:round;stroke-dasharray:none;stroke-opacity:1"
     d="m 350.92773,438.00781 c -94.80587,0.0154 -189.61274,-0.004 -284.417984,0.0809 -8.733579,0.64047 -16.718725,7.61814 -18.104726,16.33718 -0.820287,4.8777 -0.243328,9.83622 -0.393281,14.75109 0.01109,51.55864 -0.03756,103.11878 0.108044,154.67641 0.799346,8.64338 7.788688,16.44315 16.437969,17.76776 4.805109,0.77341 9.685114,0.25455 14.52467,0.36916 91.445838,0.011 182.891678,-0.0191 274.337498,-0.0723 8.76662,-0.59813 16.77023,-7.59799 18.17939,-16.33219 0.82441,-4.80328 0.23889,-9.69069 0.37935,-14.53226 -0.002,-51.57304 0.0644,-103.1473 -0.10109,-154.71951 -0.66797,-8.73266 -7.73995,-16.58324 -16.41946,-17.97415 -1.49245,-0.27507 -3.01358,-0.38815 -4.53038,-0.35205 z" />
  <rect
     style="opacity:1;fill:#757575;fill-opacity:1;stroke:none;stroke-width:1;stroke-linecap:square;stroke-linejoin:round;stroke-dasharray:none;stroke-opacity:1"
     id="rect106"
     width="360"
     height="240"
     x="1530"
     y="420"
     ry="38.276119" />
  <path
     id="path106"
     style="opacity:1;fill:#000000;fill-opacity:1;stroke:none;stroke-width:1;stroke-linecap:square;stroke-linejoin:round;stroke-dasharray:none;stroke-opacity:1"
     d="m 1708.3228,433.51334 c -47.427,0.0139 -94.8545,0.0228 -142.2812,0.0801 -10.6196,0.69688 -20.2099,9.30897 -21.8395,19.85915 -0.828,5.88526 -0.2229,11.83878 -0.4027,17.75491 0.017,50.73546 -0.038,101.47141 0.1147,152.2065 0.7454,10.74997 9.6571,20.35372 20.3612,21.76974 6.1636,0.6145 12.3675,0.19811 18.5491,0.3237 90.1967,-0.0183 180.3937,-0.006 270.5902,-0.0898 10.6159,-0.64006 20.2403,-9.18685 21.9505,-19.71325 0.8509,-6.08383 0.265,-12.2404 0.44,-18.35706 -0.023,-50.57353 0,-101.14752 -0.1112,-151.72071 -0.7495,-10.54588 -9.2924,-20.03234 -19.7582,-21.70978 -3.8336,-0.671 -7.7384,-0.33237 -11.6074,-0.41471 -45.3352,0.004 -90.6703,0.007 -136.0055,0.0112 z" />
  <path
     id="path107"
     style="opacity:1;fill:url(#linearGradient107);fill-opacity:1;stroke:#000000;stroke-width:1;stroke-linecap:square;stroke-linejoin:round;stroke-dasharray:none;stroke-opacity:1"
     d="m 1850.7232,437.50748 c -94.8059,0.0154 -189.6127,-0.004 -284.418,0.0809 -8.7336,0.64047 -16.7187,7.61814 -18.1047,16.33718 -0.8203,4.8777 -0.2433,9.83622 -0.3933,14.75109 0.011,51.55864 -0.038,103.11878 0.1081,154.67641 0.7993,8.64338 7.7887,16.44315 16.4379,17.76776 4.8051,0.77341 9.6851,0.25455 14.5247,0.36916 91.4458,0.011 182.8917,-0.0191 274.3375,-0.0723 8.7666,-0.59813 16.7702,-7.59799 18.1794,-16.33219 0.8244,-4.80328 0.2389,-9.69069 0.3793,-14.53226 0,-51.57304 0.064,-103.1473 -0.101,-154.71951 -0.668,-8.73266 -7.74,-16.58324 -16.4195,-17.97415 -1.4925,-0.27507 -3.0136,-0.38815 -4.5304,-0.35205 z" />
  <path
     id="path17"
     style="fill:#363635;fill-opacity:1;stroke:none;stroke-width:0.824107;stroke-linecap:square;stroke-linejoin:round;stroke-opacity:1"
     d="m 594.24219,334.0293 c -5.37141,0.21334 -10.72516,1.96758 -14.96395,5.32021 -6.02539,4.58108 -9.994,11.91067 -10.12004,19.52158 -0.0151,0.34956 -0.064,1.1083 -0.0794,1.61512 -0.25911,7.21007 0.093,14.42498 -0.0785,21.63645 0.0312,113.27679 0.0541,226.55386 0.10914,339.83046 0.65584,11.34694 9.79026,21.60474 21.01045,23.49036 7.24831,0.94491 14.57739,0.46966 21.86337,0.4929 27.22945,0.0783 54.45912,0.0376 81.68867,0.0579 132.72071,0.0152 265.44141,-0.0242 398.16213,-0.0269 78.2578,-0.009 156.5157,-0.0134 234.7734,-0.0318 11.2271,-0.5425 21.5261,-9.31931 23.6975,-20.37119 1.3656,-8.52801 0.3849,-17.18548 0.6951,-25.77139 -0.034,-113.93551 -0.056,-227.8713 -0.1055,-341.80664 -0.6811,-11.07593 -9.4113,-20.99194 -20.2096,-23.34649 -4.2418,-0.88364 -8.6042,-0.5473 -12.906,-0.6359 -240.3347,0.003 -480.66959,0.019 -721.00424,0.015 -0.84408,-0.0253 -1.68861,-0.0202 -2.53247,0.0104 z" />
  <path
     id="path16"
     style="fill:#606060;fill-opacity:1;stroke:none;stroke-width:0.824107;stroke-linecap:square;stroke-linejoin:round;stroke-opacity:1"
     d="M 1322.1152 322 C 1079.1624 322.0169 836.2086 322.02348 593.25586 322.04688 C 578.4376 322.55884 564.50825 332.73542 559.41406 346.64258 C 557.19634 352.47112 556.88902 358.78615 556.96875 364.95703 C 557.09618 375.32216 556.98295 385.68899 557.00195 396.05469 C 557.01455 504.8587 557.0306 613.66293 557.0918 722.4668 C 557.86793 737.03697 567.98643 750.56621 581.65625 755.5957 C 587.95695 757.9783 594.7895 758.12988 601.44141 758.01758 C 609.86816 757.93018 618.29545 758.03365 626.72266 758.00195 C 860.09791 757.97935 1093.4744 757.97502 1326.8496 757.94922 C 1341.4567 757.40082 1355.1675 747.46936 1360.4062 733.84961 C 1362.8481 727.69093 1363.1333 720.97145 1363.0391 714.42578 C 1362.9344 702.1796 1363.0063 689.9322 1362.9883 677.68555 C 1362.9763 570.96954 1362.9723 464.2529 1362.9043 357.53711 C 1362.1086 342.76195 1351.7161 329.04944 1337.752 324.19922 C 1332.7491 322.40784 1327.4006 321.88424 1322.1152 322 z M 1323.9199 336 C 1326.0655 335.95143 1328.2173 336.14582 1330.3125 336.61523 C 1340.4828 338.67272 1348.472 348.20818 1348.9492 358.53711 C 1348.9882 475.37086 1349 592.20521 1349 709.03906 C 1348.8504 714.45 1349.5013 719.93101 1348.3906 725.27734 C 1346.3403 735.60462 1336.5511 743.6522 1326.0762 743.97461 C 1086.1282 743.98701 846.18035 743.991 606.23242 744 C 600.76601 743.82249 595.23319 744.49466 589.82617 743.41406 C 579.6053 741.41979 571.54912 731.86094 571.05273 721.5 C 571.01423 604.72328 571.006 487.94675 571 371.16992 C 571.18534 365.57442 570.45924 359.89718 571.68359 354.37695 C 573.88355 344.21662 583.5559 336.35298 593.9082 336.02734 C 837.24517 336.01434 1080.583 336.01 1323.9199 336 z " />
  <rect
     style="fill:#000000;stroke-width:0.824107;stroke-linecap:square;stroke-linejoin:round;stroke:none;stroke-opacity:1;fill-opacity:1"
     id="rect3"
     width="770"
     height="400"
     x="575"
     y="340"
     ry="20" />
  <path
     id="path15"
     style="fill:#ffb935;fill-opacity:1;stroke:none;stroke-width:0.824107;stroke-linecap:square;stroke-linejoin:round;stroke-opacity:1"
     d="M 1322.1152 326 C 1079.234 326.0143 836.35194 326.02352 593.4707 326.04102 C 579.71949 326.48734 566.81303 336.27372 562.69531 349.4043 C 560.47822 356.18087 561.00866 363.39735 561.03125 370.41406 C 560.96335 394.89856 561.02201 419.38455 561.00781 443.86914 C 561.01781 536.65235 561.03583 629.43574 561.08203 722.21875 C 561.81475 736.24047 572.27352 749.18129 585.87305 752.73828 C 593.33647 754.73418 601.11287 753.78291 608.73242 754 C 848.02929 753.9844 1087.3263 753.97923 1326.623 753.95703 C 1340.664 753.46073 1353.7933 743.22241 1357.5859 729.67578 C 1359.6395 722.60163 1358.8996 715.17326 1358.9844 707.91406 C 1359.0144 647.48964 1358.9677 587.06505 1358.9707 526.64062 C 1358.9597 470.37079 1358.9489 414.09971 1358.9199 357.83008 C 1358.2099 344.15044 1348.2748 331.47825 1335.1465 327.55469 C 1330.9412 326.23736 1326.5005 325.89942 1322.1152 326 z M 1323.9199 332 C 1326.641 331.94821 1329.3688 332.24588 1332.0098 332.90625 C 1343.4823 335.64147 1352.369 346.50624 1352.9414 358.26172 C 1352.9814 474.6538 1352.99 591.04727 1353 707.43945 C 1352.8001 714.02522 1353.6652 720.73066 1352.0469 727.20117 C 1349.219 738.74121 1338.1385 747.57911 1326.293 747.96875 C 1086.7734 747.98695 847.25208 747.9883 607.73242 748 C 601.23821 747.7861 594.64275 748.62029 588.24219 747.15625 C 576.66903 744.52255 567.65071 733.61064 567.06445 721.7832 C 567.01715 605.34555 567.009 488.90661 567 372.46875 C 567.21779 365.922 566.34227 359.25589 567.94727 352.82227 C 570.76811 341.27953 581.83995 332.42598 593.68945 332.03516 C 837.09923 332.01556 1080.5101 332.013 1323.9199 332 z " />
  <path
     id="rect17"
     style="fill:url(#linearGradient22);stroke:none;stroke-linecap:square;stroke-linejoin:round;stroke-opacity:1"
     d="m 1157.3086,74.982422 c -127.1751,0.04973 -254.35027,0.0083 -381.5254,0.04297 -4.85778,0.02187 -9.72115,-0.04328 -14.57534,0.07025 -4.45521,0.632705 -7.81496,5.224698 -7.202,9.658653 0.007,70.205573 -0.0239,140.411783 0.0498,210.616953 0.36877,4.60611 5.0615,8.2309 9.60453,7.62289 131.12499,-0.002 262.25004,-0.001 393.37504,-0.0371 2.0086,0.0604 4.0835,-0.42553 5.636,-1.76068 2.4244,-1.88541 3.6638,-5.05488 3.354,-8.08853 -0.078,-15.46012 -0.013,-30.92059 -0.035,-46.38087 -0.01,-54.69932 0.017,-109.39928 -0.045,-164.098203 -0.3629,-4.251199 -4.388,-7.764825 -8.6358,-7.646325 z" />
  <path
     id="rect18"
     style="fill:#9a9a9a;fill-opacity:1;stroke:none;stroke-linecap:square;stroke-linejoin:round;stroke-opacity:1"
     d="M 1154.5 57.009766 C 1023.3875 57.009996 892.27447 57.010039 761.16211 57.037109 C 750.0153 57.417088 739.7998 65.801683 736.92578 76.523438 C 735.73439 80.892353 736.12096 85.464718 736.00586 89.939453 C 736.00581 158.64028 736.00992 227.34225 736.04492 296.04297 C 736.53221 307.49165 745.45435 317.90173 756.61523 320.3418 C 760.66337 321.21784 764.83291 320.86701 768.94141 320.98633 C 845.5076 321.01803 922.07442 320.98415 998.64062 320.98633 C 1052.0767 320.97833 1105.5134 320.97007 1158.9492 320.95117 C 1170.3728 320.52304 1180.7827 311.67045 1183.3027 300.56445 C 1184.2399 296.4471 1183.8636 292.19659 1183.9863 288.01172 C 1184.0073 226.50658 1184.0139 165.00121 1183.9609 103.49609 C 1183.9349 96.103854 1183.9613 88.709349 1183.9043 81.318359 C 1183.1216 69.443552 1173.2409 58.901342 1161.4551 57.306641 C 1159.1538 56.969461 1156.8197 57.000959 1154.5 57.009766 z M 1155.9258 77.007812 C 1156.5637 76.996303 1157.2035 76.953074 1157.8398 77.021484 C 1161.0997 77.122088 1163.8422 80.047389 1163.9688 83.261719 C 1163.9887 151.74769 1163.988 220.23453 1164 288.7207 C 1163.949 290.78817 1164.0675 292.85698 1163.9648 294.92188 C 1163.8219 298.19398 1160.845 300.88962 1157.623 300.98242 C 1025.9592 300.98572 894.29427 300.99909 762.63086 300.99609 C 759.24833 301.10697 756.17452 298.18022 756.03516 294.81641 C 756.00086 224.46177 755.99241 154.10685 756.00781 83.751953 C 755.82128 80.249044 758.92154 77.054039 762.4043 77.011719 C 893.57799 77.011219 1024.7521 76.988263 1155.9258 77.007812 z " />
  <rect
     style="fill:#b1bcff;stroke:none;stroke-width:1.73621;stroke-linecap:square;stroke-linejoin:round;stroke-opacity:1;fill-opacity:1"
     id="mainboard"
     width="752"
     height="390"
     x="584"
     y="345" />
  <rect
     style="fill:#b1bcff;fill-opacity:1;stroke:none;stroke-width:1.07712;stroke-linecap:square;stroke-linejoin:round;stroke-opacity:1"
     id="leftscore"
     width="310"
     height="186"
     x="55"
     y="447" />
  <rect
     style="fill:#b1bcff;fill-opacity:1;stroke:none;stroke-width:1.07712;stroke-linecap:square;stroke-linejoin:round;stroke-opacity:1"
     id="rightscore"
     width="310"
     height="186"
     x="1555"
     y="447" />
  <rect
     style="fill:#b1bcff;fill-opacity:1;stroke:none;stroke-linecap:square;stroke-linejoin:round;stroke-opacity:1"
     id="upperscore"
     width="400"
     height="218"
     x="760"
     y="80" />
</svg>
